<svg aria-hidden="true" style="position:absolute;width:0;height:0" xmlns="http://www.w3.org/2000/svg" overflow="hidden"><defs><symbol id="icon-film" viewBox="0 0 24 24"><path fill="none" d="M19.82 2H4.18A2.18 2.18 0 002 4.18v15.64A2.18 2.18 0 004.18 22h15.64A2.18 2.18 0 0022 19.82V4.18A2.18 2.18 0 0019.82 2zM7 2v20M17 2v20M2 12h20M2 7h5M2 17h5M17 17h5M17 7h5" stroke="#818181" stroke-width="2" stroke-linecap="round" stroke-linejoin="round"/></symbol><symbol id="icon-heart" viewBox="0 0 32 32"><path d="M16 30.144l-2.24-2.218C5.44 20.639 0 15.728 0 9.708 0 4.797 3.84.995 8.8.995c2.72 0 5.44 1.267 7.2 3.327C17.76 2.263 20.48.995 23.2.995c4.96 0 8.8 3.802 8.8 8.713 0 6.02-5.44 10.931-13.76 18.218L16 30.144z"/></symbol><symbol id="icon-search" viewBox="0 0 12 12"><path fill="none" d="M5.5 9.5a4 4 0 100-8 4 4 0 000 8zM10.5 10.5L8.325 8.325" stroke="#fff" stroke-linecap="round" stroke-linejoin="round"/></symbol><symbol id="icon-arrow-left" viewBox="0 0 32 32"><path d="M20.553 21.78l-6.113-6.113 6.113-6.113-1.887-1.887-8 8 8 8z"></path></symbol><symbol id="icon-arrow-right" viewBox="0 0 32 32"><path d="M11.447 21.947l6.113-6.113-6.113-6.113 1.887-1.887 8 8-8 8z"></path></symbol><symbol id="icon-close" viewBox="0 0 32 32"><path d="M25.333 8.553l-1.887-1.887-7.447 7.447-7.447-7.447-1.887 1.887 7.447 7.447-7.447 7.447 1.887 1.887 7.447-7.447 7.447 7.447 1.887-1.887-7.447-7.447z"></path></symbol><symbol id="icon-github" viewBox="0 0 32 32">
<path d="M16 0.395c-8.836 0-16 7.163-16 16 0 7.069 4.585 13.067 10.942 15.182 0.8 0.148 1.094-0.347 1.094-0.77 0-0.381-0.015-1.642-0.022-2.979-4.452 0.968-5.391-1.888-5.391-1.888-0.728-1.849-1.776-2.341-1.776-2.341-1.452-0.993 0.11-0.973 0.11-0.973 1.606 0.113 2.452 1.649 2.452 1.649 1.427 2.446 3.743 1.739 4.656 1.33 0.143-1.034 0.558-1.74 1.016-2.14-3.554-0.404-7.29-1.777-7.29-7.907 0-1.747 0.625-3.174 1.649-4.295-0.166-0.403-0.714-2.030 0.155-4.234 0 0 1.344-0.43 4.401 1.64 1.276-0.355 2.645-0.532 4.005-0.539 1.359 0.006 2.729 0.184 4.008 0.539 3.054-2.070 4.395-1.64 4.395-1.64 0.871 2.204 0.323 3.831 0.157 4.234 1.026 1.12 1.647 2.548 1.647 4.295 0 6.145-3.743 7.498-7.306 7.895 0.574 0.497 1.085 1.47 1.085 2.963 0 2.141-0.019 3.864-0.019 4.391 0 0.426 0.288 0.925 1.099 0.768 6.354-2.118 10.933-8.113 10.933-15.18 0-8.837-7.164-16-16-16z"></path></symbol></defs></svg>