<svg aria-hidden="true" style="position:absolute;width:0;height:0" xmlns="http://www.w3.org/2000/svg" overflow="hidden"><defs><symbol id="icon-film" viewBox="0 0 32 32"><path fill="none" stroke-width="2.667" stroke-linecap="round" stroke-linejoin="round" d="M26.427 2.667H5.574a2.907 2.907 0 00-2.907 2.907v20.853a2.907 2.907 0 002.907 2.907h20.853a2.907 2.907 0 002.907-2.907V5.574a2.907 2.907 0 00-2.907-2.907zM9.333 2.667v26.667M22.667 2.667v26.667M2.667 16h26.667M2.667 9.333h6.667M2.667 22.667h6.667M22.667 22.667h6.667M22.667 9.333h6.667"/></symbol><symbol id="icon-heart" viewBox="0 0 32 32"><path d="M16 30.144l-2.24-2.218C5.44 20.639 0 15.728 0 9.708 0 4.797 3.84.995 8.8.995c2.72 0 5.44 1.267 7.2 3.327C17.76 2.263 20.48.995 23.2.995c4.96 0 8.8 3.802 8.8 8.713 0 6.02-5.44 10.931-13.76 18.218L16 30.144z"/></symbol><symbol id="icon-search" viewBox="0 0 12 12"><path fill="none"  d="M5.5 9.5C7.70914 9.5 9.5 7.70914 9.5 5.5C9.5 3.29086 7.70914 1.5 5.5 1.5C3.29086 1.5 1.5 3.29086 1.5 5.5C1.5 7.70914 3.29086 9.5 5.5 9.5Z" stroke-linecap="round" stroke-linejoin="round"/><path fill="none"  d="M10.5 10.5002L8.32495 8.3252" stroke-linecap="round" stroke-linejoin="round"/></symbol></defs></svg>